<svg xmlns="http://www.w3.org/2000/svg" width="75" height="75" viewBox="0 0 75 75" fill="none"><path d="M8.42551 3.45995C8.84445 2.31445 9.90207 1.42675 11.1076 1.229C11.6496 1.1455 12.1975 1.17333 12.7439 1.1704C18.653 1.1748 24.5622 1.16747 30.4714 1.1748C32.2893 1.13232 33.9431 2.71288 33.9739 4.53222C33.9988 6.53613 33.9753 8.5415 33.9841 10.5469C39.4524 10.5469 44.9221 10.5469 50.3904 10.5469C50.3962 9.32519 50.3786 8.10351 50.3977 6.88183C50.4255 5.32616 51.1184 3.80273 52.261 2.74804C53.3274 1.74169 54.7849 1.17187 56.2512 1.1748C57.8157 1.16894 59.3816 1.16894 60.946 1.1748C62.5486 1.17187 64.1335 1.86327 65.219 3.04101C66.2224 4.11034 66.7951 5.56347 66.7937 7.02978C66.801 12.8906 66.7937 18.75 66.7966 24.6094C68.0578 24.5976 69.3791 24.5391 70.5437 25.1074C72.2619 25.875 73.5261 27.561 73.7707 29.4272C73.9026 30.3208 73.74 31.2187 73.633 32.105C72.3528 42.353 71.071 52.5996 69.7893 62.8476C69.6472 63.9888 69.5725 65.1826 68.9851 66.2036C68.0359 68.001 66.0466 69.1743 64.0149 69.1391C52.0515 69.1421 40.0881 69.1392 28.1247 69.1406C28.1042 69.9155 28.1833 70.6992 28.0573 71.4683C27.7864 72.8979 26.3391 73.9805 24.886 73.8105C23.9031 73.7475 23.1413 73.062 22.3489 72.5566C20.6394 71.4375 18.9621 70.2627 17.2365 69.1728C15.0569 69.0864 12.8655 69.1802 10.6814 69.1289C8.60861 69.063 6.65012 67.7182 5.82541 65.8198C5.42844 64.9746 5.35959 64.0342 5.24387 63.1216C3.95188 52.7783 2.65842 42.4351 1.36496 32.0918C1.25217 31.1704 1.08664 30.2358 1.24484 29.3101C1.61545 26.6792 4.08664 24.5713 6.74387 24.6123C11.1355 24.605 15.5285 24.6123 19.9216 24.6094C19.9216 23.8286 19.9216 23.0464 19.9216 22.2656C17.134 22.2583 14.3464 22.2803 11.5588 22.2554C9.74094 22.2231 8.16037 20.5679 8.20578 18.75C8.19699 14.3569 8.20725 9.96386 8.20139 5.57079C8.20285 4.86474 8.15891 4.12939 8.42551 3.45995ZM11.3347 3.583C10.8132 3.74853 10.5027 4.30077 10.5466 4.83398C10.5451 9.13183 10.5495 13.4297 10.5451 17.7275C10.551 18.1626 10.5158 18.6035 10.5891 19.0356C10.7077 19.604 11.2937 19.9687 11.8576 19.9204C17.7683 19.9248 23.6789 19.9175 29.5881 19.9248C30.0144 19.9145 30.4524 19.9643 30.8684 19.8472C31.3781 19.6772 31.6784 19.1338 31.6389 18.6108C31.636 13.9629 31.6506 9.31493 31.6316 4.66698C31.6477 3.98437 30.987 3.44384 30.3235 3.51562C24.4143 3.51269 18.5051 3.52001 12.5959 3.51269C12.177 3.52294 11.7463 3.47607 11.3347 3.583ZM52.7429 6.8789C52.7209 8.8828 52.7414 10.8867 52.7341 12.8906C56.6408 12.8906 60.5461 12.8906 64.4529 12.8906C64.4543 11.0361 64.4499 9.18163 64.4558 7.32714C64.4602 6.73095 64.3972 6.12157 64.135 5.57812C63.5901 4.34618 62.2864 3.50243 60.9372 3.51855C59.323 3.51708 57.7087 3.5039 56.0959 3.52441C54.3308 3.5537 52.7722 5.11376 52.7429 6.8789ZM33.9841 12.8906C33.9812 14.8433 33.99 16.7944 33.9812 18.7471C34.0324 20.6821 32.2512 22.3828 30.322 22.2671C27.6369 22.2656 24.9504 22.2656 22.2654 22.2656C22.2654 23.0464 22.2654 23.8286 22.2654 24.6094C31.6404 24.6094 41.0154 24.6094 50.3904 24.6094C50.3904 20.7026 50.3904 16.7974 50.3904 12.8906C44.9221 12.8906 39.4524 12.8906 33.9841 12.8906ZM52.7341 15.2344C52.7341 16.0151 52.7341 16.7974 52.7341 17.5781C56.6408 17.5781 60.5461 17.5781 64.4529 17.5781C64.4529 16.7974 64.4529 16.0151 64.4529 15.2344C60.5461 15.2344 56.6408 15.2344 52.7341 15.2344ZM52.7341 19.9219C52.7341 25.3901 52.7341 30.8599 52.7341 36.3281C54.2971 36.3281 55.8586 36.3281 57.4216 36.3281C57.4216 30.8599 57.4216 25.3901 57.4216 19.9219C55.8586 19.9219 54.2971 19.9219 52.7341 19.9219ZM59.7654 19.9219C59.7654 25.3901 59.7654 30.8599 59.7654 36.3281C61.3283 36.3281 62.8899 36.3281 64.4529 36.3281C64.4529 30.8599 64.4529 25.3901 64.4529 19.9219C62.8899 19.9219 61.3283 19.9219 59.7654 19.9219ZM3.68088 29.1738C3.39231 29.9692 3.56955 30.8232 3.66916 31.6362C5.01389 42.375 6.35422 53.1138 7.69748 63.8525C7.81906 65.436 9.23996 66.7822 10.8322 66.791C13.0793 66.8057 15.3279 66.7939 17.5749 66.7939C18.0158 66.7412 18.341 67.081 18.6867 67.2934C20.7082 68.6484 22.7356 69.9946 24.76 71.3437C25.1716 71.6777 25.8498 71.2939 25.7766 70.7681C25.7927 69.4438 25.7737 68.1196 25.781 66.7969C38.1355 66.7969 50.49 66.7969 62.8445 66.7969C63.385 66.7925 63.927 66.8218 64.4675 66.7661C65.5149 66.6518 66.4714 65.9736 66.9504 65.0391C67.2903 64.4077 67.3166 63.6753 67.4118 62.9795C68.7156 52.5322 70.0237 42.085 71.3288 31.6377C71.4211 30.8599 71.594 30.0542 71.3523 29.2866C71.0168 28.1001 69.949 27.1567 68.7243 26.9941C68.0842 26.918 67.4397 26.9619 66.7966 26.9546C66.7893 30.5215 66.8113 34.0898 66.7864 37.6553C66.5666 38.4272 66.0876 39.104 65.7668 39.8379C64.28 42.7998 62.8093 45.7705 61.3152 48.7295C60.8083 49.7329 59.7229 50.3979 58.5979 50.3862C55.4719 50.3965 52.3445 50.3877 49.2185 50.3906C49.2185 49.6099 49.2185 48.8276 49.2185 48.0469C51.3205 48.0454 53.4226 48.0483 55.5246 48.0454C53.9616 44.9194 52.4001 41.792 50.8342 38.6675C50.6364 38.2515 50.3406 37.8442 50.386 37.3608C50.3948 33.8921 50.3889 30.4219 50.3904 26.9531C35.8386 26.956 21.2868 26.9487 6.73654 26.956C5.3801 26.9414 4.0925 27.8848 3.68088 29.1738ZM53.4607 38.6733C54.9416 41.6352 56.4197 44.6001 57.9065 47.5591C58.1189 48.1582 59.0622 48.1611 59.279 47.5635C60.7688 44.6045 62.2439 41.6352 63.7278 38.6719C60.3059 38.6719 56.8825 38.6704 53.4607 38.6733Z" fill="#111321"></path><path d="M17.6366 5.93251C18.3764 5.76259 19.1586 5.90322 19.8222 6.25478C21.643 7.16884 23.4696 8.07119 25.2846 8.99257C26.2953 9.49648 26.9633 10.5951 26.9486 11.723C26.9604 12.8451 26.2938 13.9379 25.2904 14.4403C23.537 15.3339 21.7704 16.2025 20.0141 17.0888C19.3563 17.4477 18.6005 17.6703 17.8476 17.5414C16.4413 17.3554 15.2738 16.0766 15.2445 14.6542C15.2226 12.747 15.2372 10.8368 15.2372 8.92959C15.2079 7.52919 16.2685 6.21523 17.6366 5.93251ZM18.0424 8.2499C17.704 8.36709 17.5487 8.73476 17.578 9.07314C17.5824 10.8881 17.5619 12.7045 17.5883 14.5194C17.5766 15.0307 18.2035 15.3939 18.6459 15.1405C20.414 14.2763 22.1703 13.3812 23.9354 12.5082C24.2577 12.3588 24.6312 12.1244 24.6063 11.7157C24.6254 11.3539 24.3207 11.1107 24.0233 10.976C22.3007 10.1088 20.5707 9.25771 18.851 8.38759C18.6034 8.27041 18.3163 8.12978 18.0424 8.2499Z" fill="#111321"></path><path d="M35.5001 29.9252C36.5987 29.1371 38.1617 29.0932 39.3116 29.8037C40.3516 30.4189 41.0211 31.5996 41.0123 32.8095C41.0211 35.1899 41.0108 37.5732 41.0167 39.955C42.5387 40.2831 43.9273 41.2133 44.7638 42.5331C45.795 44.0991 45.9854 46.1718 45.2691 47.9033C44.5558 49.6992 42.9019 51.0541 41.0167 51.4511C41.0108 53.8344 41.0211 56.2177 41.0123 58.601C41.0182 59.767 40.3941 60.9096 39.4112 61.538C38.4312 62.1884 37.1143 62.2895 36.0479 61.7914C35.0035 61.33 34.2623 60.3266 34.0352 59.2192C31.2857 57.0073 28.0382 55.4252 24.6104 54.5976C24.6075 57.8818 24.609 61.1674 24.609 64.4531C22.3429 64.4531 20.0782 64.4516 17.8121 64.4531C17.0299 60.9389 16.2462 57.4233 15.4684 53.9077C14.3712 53.9018 13.2374 53.9765 12.1886 53.5927C9.96347 52.8662 8.3038 50.6982 8.21738 48.3544C8.18368 46.7387 8.21152 45.1201 8.20273 43.5043C8.18222 42.2299 8.56747 40.9482 9.3248 39.9199C10.3707 38.4638 12.1139 37.5366 13.9098 37.5073C15.8141 37.4809 17.7184 37.5219 19.6226 37.4868C24.8331 37.3549 29.9762 35.458 34.0338 32.1884C34.2271 31.289 34.731 30.4482 35.5001 29.9252ZM37.1129 31.708C36.5943 31.8764 36.2852 32.4243 36.3277 32.956C36.3248 41.2587 36.3321 49.5615 36.3248 57.8627C36.3409 58.3608 36.2442 58.9394 36.6046 59.3452C37.0133 59.8622 37.8658 59.9003 38.3214 59.4243C38.6334 59.1401 38.6832 58.7006 38.6744 58.3037C38.6627 49.8017 38.6847 41.2983 38.6627 32.7963C38.6891 32.0258 37.8277 31.4252 37.1129 31.708ZM19.9215 39.8027C19.9215 43.7358 19.9215 47.6689 19.9215 51.602C24.921 51.7792 29.8634 53.3979 33.9825 56.2397C33.984 49.2158 33.9854 42.1904 33.9825 35.165C29.8619 38.0053 24.921 39.6225 19.9215 39.8027ZM10.7516 42.183C12.2457 42.1933 13.7398 42.1845 15.234 42.1874C15.234 42.9682 15.234 43.7504 15.234 44.5312C13.671 44.5312 12.1095 44.5312 10.5465 44.5312C10.5465 45.312 10.5465 46.0942 10.5465 46.8749C12.1095 46.8749 13.671 46.8749 15.234 46.8749C15.234 47.6557 15.234 48.4365 15.234 49.2187C13.7398 49.2216 12.2457 49.2128 10.7516 49.2231C11.2452 50.5195 12.4962 51.5112 13.901 51.5537C15.1256 51.5786 16.3517 51.5537 17.5777 51.5624C17.5777 47.6557 17.5777 43.7504 17.5777 39.8437C16.3517 39.8525 15.1256 39.8276 13.901 39.8525C12.4947 39.892 11.2437 40.8867 10.7516 42.183ZM41.0211 42.3925C41.0108 44.6 41.0123 46.8061 41.0196 49.0136C42.3717 48.5053 43.378 47.1635 43.356 45.7016C43.3751 44.2412 42.3717 42.9008 41.0211 42.3925ZM17.8678 53.9077C18.4727 56.6411 19.0836 59.373 19.6871 62.1079C20.547 62.1108 21.4068 62.1079 22.2652 62.1093C22.2667 59.458 22.2667 56.8066 22.2667 54.1552C20.8106 53.9457 19.337 53.8813 17.8678 53.9077Z" fill="#111321"></path><path d="M49.2188 52.7344C54.687 52.7344 60.1567 52.7344 65.625 52.7344C65.625 53.5151 65.625 54.2959 65.625 55.0781C60.1567 55.0781 54.687 55.0781 49.2188 55.0781C49.2188 54.2959 49.2188 53.5151 49.2188 52.7344Z" fill="#111321"></path><path d="M49.2188 57.4219C54.687 57.4219 60.1567 57.4219 65.625 57.4219C65.625 58.2026 65.625 58.9834 65.625 59.7656C60.1567 59.7656 54.687 59.7656 49.2188 59.7656C49.2188 58.9834 49.2188 58.2026 49.2188 57.4219Z" fill="#111321"></path><path d="M49.2188 62.1094C49.9995 62.1094 50.7803 62.1094 51.5625 62.1094C51.5625 62.8901 51.5625 63.6709 51.5625 64.4531C50.7803 64.4531 49.9995 64.4531 49.2188 64.4531C49.2188 63.6709 49.2188 62.8901 49.2188 62.1094Z" fill="#111321"></path><path d="M53.9062 62.1094C54.687 62.1094 55.4678 62.1094 56.25 62.1094C56.25 62.8901 56.25 63.6709 56.25 64.4531C55.4678 64.4531 54.687 64.4531 53.9062 64.4531C53.9062 63.6709 53.9062 62.8901 53.9062 62.1094Z" fill="#111321"></path><path d="M58.5938 62.1094C59.3745 62.1094 60.1553 62.1094 60.9375 62.1094C60.9375 62.8901 60.9375 63.6709 60.9375 64.4531C60.1553 64.4531 59.3745 64.4531 58.5938 64.4531C58.5938 63.6709 58.5938 62.8901 58.5938 62.1094Z" fill="#111321"></path><path d="M63.2812 62.1094C64.062 62.1094 64.8428 62.1094 65.625 62.1094C65.625 62.8901 65.625 63.6709 65.625 64.4531C64.8428 64.4531 64.062 64.4531 63.2812 64.4531C63.2812 63.6709 63.2812 62.8901 63.2812 62.1094Z" fill="#111321"></path></svg>