<svg xmlns="http://www.w3.org/2000/svg" width="75" height="75" viewBox="0 0 75 75" fill="none"><g clip-path="url(#clip0_3316_910)"><path d="M10.3755 0H11.0098C12.4204 0.121582 13.6274 1.13818 14.1079 2.45068C19.6333 2.45361 25.1572 2.44775 30.6826 2.45361C30.6812 1.78271 30.6226 1.02246 31.0708 0.46582C31.3447 0.109863 31.834 0.150879 32.2339 0.140625C33.4995 0.149414 34.7651 0.147949 36.0293 0.140625C36.4219 0.149414 36.8994 0.120117 37.1646 0.470215C37.6113 1.02539 37.5483 1.78564 37.5439 2.45508C43.0708 2.44482 48.5962 2.45654 54.123 2.44922C54.5991 1.13525 55.8091 0.120117 57.2183 0H57.7676C58.6113 0.0864258 59.436 0.436523 60.0293 1.05322C60.9624 1.97168 61.3037 3.42773 60.8745 4.66553C60.3882 6.20801 58.7446 7.27148 57.1362 7.06787C55.7607 6.94189 54.5991 5.92383 54.1245 4.65234C48.5991 4.64209 43.0723 4.65234 37.5469 4.64795C37.5498 5.29102 37.6025 6.02344 37.1558 6.54785C36.8936 6.88477 36.438 6.90527 36.0557 6.99756C36.4775 7.7124 36.873 8.44189 37.2979 9.15527C45.5684 9.14355 53.8403 9.15381 62.1123 9.15088C63.1699 9.16406 64.2715 9.04834 65.2808 9.44678C66.9917 10.0737 68.2192 11.8052 68.2236 13.6318C68.2354 22.2056 68.2236 30.7808 68.231 39.3545C68.833 38.7979 69.3428 38.1313 70.0254 37.667C70.7622 37.2114 71.6689 37.5044 72.3032 37.998C72.6621 37.645 72.9814 37.2319 73.4253 36.9785C74.2339 36.5771 75.2373 37.5439 74.8945 38.3701C74.6499 38.8491 74.2075 39.1802 73.8413 39.5596C74.3687 40.2349 74.6309 41.2456 74.064 41.978C73.3623 42.813 72.5376 43.5337 71.7773 44.3145C72.4922 44.3145 73.2583 44.3511 73.8545 44.7993C74.4946 45.2256 74.8813 45.9478 75 46.6978V72.5625C74.896 73.8223 73.8384 74.8828 72.5815 75H36.5654C35.2749 74.8403 34.188 73.6846 34.2114 72.3677C34.1997 69.6328 34.2114 66.8965 34.2085 64.1616C29.9297 64.1572 25.6523 64.1631 21.3735 64.1587C20.7656 64.2217 20.1211 63.7852 20.105 63.1436C20.0171 61.0356 21.4277 58.9937 23.3936 58.2612C24.4233 57.8408 25.5513 57.9199 26.6382 57.9199C26.8784 55.6187 27.1172 53.3174 27.3574 51.0161C20.1929 51.0146 13.0283 51.0161 5.86377 51.0161C4.83691 51.0146 3.76172 51.0923 2.79932 50.6587C1.25684 50.0303 0.169922 48.5112 0 46.8618V13.3506C0.146484 11.6909 1.2334 10.1484 2.7832 9.51562C3.74707 9.07324 4.82666 9.15088 5.85791 9.14941C14.2192 9.15088 22.5806 9.14941 30.9419 9.15088C31.3535 8.43604 31.752 7.71387 32.1724 7.00342C31.7974 6.91113 31.3535 6.88623 31.0869 6.56689C30.624 6.04248 30.6724 5.29834 30.6812 4.64795C25.1558 4.65088 19.6304 4.64502 14.105 4.65088C13.6172 5.96045 12.397 6.99756 10.9746 7.07812C9.62842 7.19531 8.26465 6.4541 7.61865 5.26904C6.90088 4.02539 7.06055 2.34961 8.00244 1.26563C8.58838 0.547852 9.46729 0.124512 10.3755 0ZM10.3081 2.26172C9.34424 2.51953 9.04102 3.90381 9.81006 4.53955C10.5205 5.25 11.8799 4.80176 12.0322 3.81006C12.2739 2.85059 11.2324 1.9248 10.3081 2.26172ZM57.0425 2.28516C56.0977 2.59131 55.8618 3.98584 56.6587 4.58203C57.3882 5.24121 58.6934 4.76807 58.8354 3.79688C59.0698 2.81689 57.9727 1.88672 57.0425 2.28516ZM32.9077 2.34375C32.9077 3.14795 32.9062 3.95215 32.9077 4.75488C33.7119 4.75635 34.5161 4.75635 35.3203 4.75488C35.3218 3.95215 35.3218 3.14795 35.3203 2.34375C34.5161 2.34375 33.7119 2.34375 32.9077 2.34375ZM35.2134 20.1958C36.769 20.7349 37.894 22.3667 37.6582 24.0264C37.4897 25.8179 35.792 27.2856 33.9932 27.1831C32.2236 27.1597 30.6445 25.6392 30.5537 23.8726C30.4014 22.2598 31.5117 20.7217 33.0132 20.1958C33.0176 16.7842 33.0176 13.3726 33.0132 9.9624C30.0923 15.0864 27.1816 20.2192 24.2666 25.3477C25.8706 27.2344 27.4878 29.1108 29.0874 31.002C32.4434 31.0049 35.7993 31.0151 39.1538 30.9961C40.7446 29.1021 42.3633 27.2329 43.9614 25.3477C41.0478 20.2148 38.1299 15.085 35.2148 9.95361C35.2119 13.3682 35.2119 16.7812 35.2134 20.1958ZM3.71631 11.5034C2.80811 11.8491 2.15771 12.7866 2.19873 13.7651C2.1958 22.4253 2.19727 31.0854 2.19727 39.7456C10.062 39.7456 17.9268 39.7471 25.79 39.7456C25.7886 37.6772 25.7622 35.6074 25.7725 33.5391C25.7637 32.7803 26.1665 32.0947 26.6997 31.582C25.2173 29.8491 23.7422 28.1089 22.2539 26.3804C22.0415 26.127 21.8203 25.8384 21.8306 25.4897C21.8335 25.0664 22.106 24.7178 22.2964 24.3589C24.7676 20.0259 27.2285 15.6855 29.6938 11.3481C21.6006 11.3467 13.5088 11.3496 5.41553 11.3452C4.84863 11.354 4.2583 11.2954 3.71631 11.5034ZM38.5342 11.3481C40.9644 15.624 43.3945 19.9014 45.8262 24.1758C46.0269 24.5537 46.3037 24.9097 46.3872 25.3389C46.4561 25.73 46.2349 26.0815 45.9888 26.3643C44.499 28.0972 43.0254 29.8447 41.5327 31.5747C42.0527 32.0962 42.4585 32.7729 42.4556 33.5303C42.4658 35.6016 42.4395 37.6743 42.438 39.7456C50.3027 39.7456 58.1675 39.7471 66.0308 39.7456C66.0308 31.0854 66.0322 22.4268 66.0308 13.7666C66.085 12.5054 64.9863 11.3423 63.7192 11.3525C55.3242 11.3408 46.9292 11.3511 38.5342 11.3481ZM33.5947 22.3447C32.6294 22.6904 32.4448 24.1465 33.3003 24.7178C34.0972 25.3696 35.4346 24.7632 35.4785 23.7378C35.6104 22.7578 34.4956 21.9302 33.5947 22.3447ZM27.9697 33.6797C27.9478 35.3921 27.9771 37.1045 27.958 38.8169C27.9463 39.1304 27.9829 39.4453 28.0752 39.7471C31.6113 39.7456 35.146 39.7456 38.6807 39.7471C39.1641 39.7412 39.6489 39.7778 40.1294 39.7104C40.3154 39.5024 40.248 39.2065 40.27 38.9531C40.2466 37.1514 40.2949 35.3481 40.248 33.5479C40.2275 33.2036 39.7998 33.2051 39.5449 33.2021C35.8843 33.2065 32.2222 33.1978 28.5615 33.2051C28.2729 33.1758 27.9067 33.3311 27.9697 33.6797ZM57.3428 53.3555C57.7222 53.7407 58.1045 54.1245 58.4883 54.5068C63.0132 49.9834 67.5337 45.4556 72.0601 40.9336C71.6807 40.5469 71.2983 40.1631 70.9145 39.7822C66.3911 44.3071 61.8691 48.832 57.3428 53.3555ZM2.19873 41.9429C2.20459 43.4941 2.18115 45.0469 2.20752 46.5967C2.23828 47.7964 3.33838 48.8335 4.53516 48.8145C14.4258 48.8232 24.3164 48.8159 34.2056 48.8188C34.2568 47.8667 34.0605 46.8691 34.4106 45.958C34.8135 44.9692 35.8491 44.2925 36.9185 44.3276C45.6958 44.3276 54.4731 44.3203 63.2505 44.3306C64.0605 43.5469 64.8472 42.7412 65.644 41.9443C51.9155 41.918 38.1855 41.9868 24.4556 41.9429C17.0361 41.9429 9.61816 41.9443 2.19873 41.9429ZM36.4058 47.1636C36.4058 55.5161 36.3999 63.8687 36.4087 72.2197C36.3647 72.5127 36.5742 72.8276 36.8936 72.7939C38.6997 72.8174 40.5088 72.7954 42.3149 72.8027C42.3149 64.043 42.3149 55.2832 42.3149 46.5234C40.5132 46.5308 38.7114 46.5088 36.9111 46.5322C36.5493 46.4854 36.3589 46.8486 36.4058 47.1636ZM44.5122 46.5234C44.5122 55.2832 44.5122 64.043 44.5122 72.8027C53.7524 72.7998 62.9927 72.8086 72.2314 72.7983C72.5713 72.854 72.8525 72.5625 72.7983 72.2256C72.8086 63.8687 72.8027 55.5117 72.8013 47.1548C72.8335 46.8765 72.6958 46.522 72.3647 46.5381C71.436 46.4956 70.5059 46.5381 69.5786 46.5234C66.1978 49.9028 62.8184 53.2837 59.4404 56.6645C58.1704 57.958 56.4302 58.7959 54.6226 58.9409C53.6631 59.0625 52.7212 58.0767 52.9058 57.1201C53.0859 55.3491 53.9165 53.6514 55.188 52.4063C57.1465 50.4448 59.1079 48.4878 61.0635 46.5234C55.5469 46.5234 50.0303 46.5234 44.5122 46.5234ZM29.5679 51.0161C29.3262 53.3159 29.0874 55.6172 28.8486 57.9185C30.6343 57.9214 32.4199 57.9199 34.2056 57.9199C34.2085 55.6187 34.2056 53.3174 34.207 51.0161C32.6616 51.0146 31.1147 51.0161 29.5679 51.0161ZM55.2026 56.6382C55.7607 56.4639 56.2939 56.2207 56.8037 55.9365C56.5122 55.6377 56.2178 55.3403 55.9233 55.0444C55.6143 55.5425 55.3755 56.0786 55.2026 56.6382ZM22.4883 61.957C26.395 61.9702 30.3018 61.9614 34.2085 61.9614C34.207 61.3462 34.207 60.7324 34.207 60.1172C31.2085 60.1201 28.2114 60.1113 25.2129 60.1216C24.0293 60.1084 22.9556 60.8906 22.4883 61.957Z" fill="#111321"></path><path d="M38.726 49.2846C39.3661 48.8818 40.3124 49.3593 40.3519 50.1181C40.3768 51.1757 40.3915 52.2407 40.3432 53.2983C40.2318 54.3574 38.5136 54.4599 38.2294 53.4565C38.0976 52.5395 38.2059 51.6064 38.1664 50.6821C38.1342 50.1664 38.2133 49.5468 38.726 49.2846Z" fill="#111321"></path><path d="M38.8472 56.4213C39.5283 56.1093 40.375 56.6645 40.3281 57.4203C40.3941 58.1557 39.6104 58.7387 38.9248 58.4853C38.0108 58.2289 37.9683 56.7524 38.8472 56.4213Z" fill="#111321"></path><path d="M38.8655 60.8613C39.5247 60.5771 40.3406 61.0884 40.3274 61.8164C40.4197 62.543 39.68 63.1758 38.9768 62.9487C38.0144 62.7378 37.9485 61.1836 38.8655 60.8613Z" fill="#111321"></path><path d="M38.8507 65.2164C39.4762 64.9308 40.2906 65.3893 40.3477 66.0792C40.3946 67.0519 40.3609 68.0274 40.3668 69.0016C40.3844 69.4029 40.2115 69.8292 39.8365 70.0138C39.2359 70.3653 38.2823 70.0416 38.1988 69.3004C38.1344 68.3219 38.1842 67.3375 38.1724 66.3575C38.1373 65.8814 38.3951 65.3922 38.8507 65.2164Z" fill="#111321"></path></g><defs><clipPath id="clip0_3316_910"><rect width="75" height="75" fill="white"></rect></clipPath></defs></svg>