<svg xmlns="http://www.w3.org/2000/svg" width="65" height="75" viewBox="0 0 65 75" fill="none"><path d="M5.38595 0H59.4958C60.5432 0.120117 61.5744 0.490723 62.3903 1.17188C63.6135 2.15625 64.343 3.70898 64.3239 5.2793C64.3283 14.2134 64.3239 23.146 64.3269 32.0801C64.3254 32.7554 64.3503 33.4395 64.217 34.1074C63.7688 36.5098 61.4558 38.3687 59.0109 38.291C45.486 38.2939 31.9611 38.2866 18.4377 38.2939C17.8737 38.3013 17.1618 38.3613 16.8191 37.8076C16.3166 37.1396 16.8674 36.0718 17.7024 36.1011C31.4734 36.0835 45.2458 36.0996 59.0183 36.0937C60.1638 36.1274 61.2917 35.4609 61.7985 34.4312C62.0915 33.8892 62.1428 33.2607 62.1311 32.6558C62.1193 23.4814 62.1399 14.3057 62.1208 5.12988C62.1164 3.51562 60.6267 2.12109 59.0183 2.19727C41.3405 2.19727 23.6643 2.19727 5.98653 2.19727C4.37667 2.1167 2.88253 3.51416 2.87814 5.12988C2.86202 14.2119 2.8796 23.2939 2.86935 32.3745C2.86935 32.959 2.84445 33.564 3.06271 34.1177C3.39523 35.0244 4.18478 35.7451 5.11788 35.9883C5.69064 36.1362 6.28683 36.0894 6.8713 36.0937C9.02023 36.0967 11.1677 36.0864 13.3166 36.0981C13.9143 36.0732 14.4533 36.6079 14.4284 37.207C14.4358 37.7974 13.8996 38.3159 13.3078 38.2852C10.7238 38.2866 8.13985 38.3101 5.55734 38.2734C2.9089 38.1621 0.63839 35.7539 0.677941 33.104C0.670617 23.8286 0.675011 14.5532 0.676476 5.2793C0.655968 3.73975 1.3547 2.21631 2.53976 1.2334C3.3381 0.541992 4.35177 0.159668 5.38595 0Z" fill="#111321"></path><path d="M9.70055 11.2823C9.78697 10.7594 10.2938 10.3595 10.8226 10.3917C15.2494 10.3815 19.6629 11.8902 23.1551 14.6149C25.2352 16.1998 26.9432 18.2286 28.307 20.4523C31.0829 17.4508 35.1522 15.6842 39.2421 15.7237C39.7123 15.7311 40.1429 16.0929 40.2484 16.5499C40.3993 17.089 40.0536 17.6998 39.5189 17.858C39.1864 17.9386 38.8407 17.9151 38.5038 17.9371C35.0409 18.1129 31.6893 19.7901 29.4613 22.4444C29.1039 22.837 28.8314 23.42 28.2455 23.4903C27.7181 23.59 27.2215 23.2369 27.0238 22.7623C25.3085 19.2613 22.4593 16.3155 18.9774 14.5504C16.5062 13.2833 13.7362 12.6124 10.9618 12.589C10.2396 12.6886 9.53355 12.0148 9.70055 11.2823Z" fill="#111321"></path><path d="M47.5238 11.9737C49.1234 11.5943 50.8695 11.8829 52.2537 12.7735C53.7127 13.7008 54.7557 15.2608 55.0296 16.9688C55.2962 18.5391 54.9227 20.2061 54.0042 21.5069C53.0433 22.9044 51.4818 23.8741 49.7987 24.0968C47.9119 24.3751 45.9183 23.7042 44.5794 22.3477C43.0662 20.8682 42.4246 18.5787 42.9403 16.5279C43.4544 14.3087 45.3045 12.4791 47.5238 11.9737ZM48.0511 14.1051C46.0194 14.524 44.5853 16.711 45.035 18.7427C45.388 20.8184 47.5897 22.3331 49.6566 21.8966C51.7498 21.5655 53.2894 19.3565 52.8543 17.2764C52.5218 15.1099 50.1795 13.5543 48.0511 14.1051Z" fill="#111321"></path><path d="M10.4335 15.0235C10.8437 14.921 11.2729 14.984 11.6904 14.9957C15.4228 15.2037 19.0556 16.8092 21.7216 19.4298C24.0668 21.7149 25.6752 24.7486 26.2231 27.9771C26.3491 28.5162 25.9975 29.1021 25.4672 29.2515C24.9721 29.4141 24.3876 29.1578 24.1679 28.6876C24.0478 28.3931 24.0112 28.0753 23.9438 27.7677C23.267 24.6182 21.4008 21.7471 18.8139 19.8311C16.5258 18.1114 13.6752 17.1754 10.8159 17.1607C10.2885 17.1842 9.78168 16.7843 9.69964 16.2598C9.59271 15.7384 9.9267 15.1788 10.4335 15.0235Z" fill="#111321"></path><path d="M37.2755 20.4741C37.9684 20.3555 38.6745 20.2647 39.379 20.3145C40.1598 20.4141 40.5641 21.4512 40.0587 22.0562C39.672 22.607 38.9425 22.4663 38.3668 22.5366C35.1632 22.8179 32.276 25.1968 31.3869 28.2862C31.2872 28.7564 30.9562 29.2105 30.4537 29.2822C29.7301 29.4404 29.0036 28.711 29.1911 27.9888C30.1447 24.2066 33.4347 21.1538 37.2755 20.4741Z" fill="#111321"></path><path d="M31.3613 42.3648C31.6982 41.7407 32.3808 41.3365 33.0883 41.335C34.5517 41.3247 36.0151 41.3189 37.4784 41.3379C38.4701 41.3496 39.3564 42.208 39.3857 43.2027C39.4223 44.3775 39.3842 45.5523 39.4018 46.7285C39.3989 47.25 39.4355 47.8081 39.1733 48.2813C38.9858 48.6577 38.6489 48.9258 38.3325 49.1924C37.6865 49.7139 37.0859 50.3042 36.3461 50.6997C36.3534 51.1758 36.3549 51.6519 36.3534 52.128C44.6386 52.1294 52.9223 52.1294 61.2075 52.128C61.8271 52.1397 62.4863 52.0533 63.0619 52.3374C63.8325 52.6831 64.3393 53.5078 64.3232 54.3501C64.3261 55.3726 64.332 56.3965 64.3202 57.4204C64.3115 58.2583 63.7753 59.0655 62.9975 59.3848C62.4833 59.6192 61.9062 59.5547 61.3598 59.562C53.0248 59.5576 44.6913 59.5635 36.3578 59.5591C36.3491 60.5581 36.3549 61.5572 36.3549 62.5562C44.9374 62.5635 53.52 62.5547 62.1025 62.5606C63.0751 62.5371 64.0082 63.23 64.2455 64.1778C64.3964 64.8911 64.2983 65.6294 64.3246 66.3545C64.2851 67.2349 64.4931 68.2119 63.9731 68.9927C63.5248 69.7281 62.6327 70.0664 61.7992 70.0034C53.3178 69.9976 44.8364 69.9991 36.3534 70.002C36.3417 71.3247 36.374 72.649 36.3403 73.9717C36.3388 74.4741 35.9286 74.8418 35.4863 75H35.0702C34.5986 74.8784 34.1723 74.4873 34.1679 73.9761C34.1357 72.6519 34.1679 71.3262 34.1547 70.002C30.1835 69.9932 26.2109 70.0108 22.2397 69.9932C21.144 69.9961 20.1479 69.0586 20.101 67.96C20.0834 66.8438 20.0849 65.7246 20.101 64.607C20.1406 63.5069 21.1366 62.5591 22.2367 62.5635C26.2094 62.5503 30.1821 62.565 34.1547 62.5562C34.1576 61.5586 34.1576 60.5596 34.1547 59.562C30.1821 59.5562 26.2109 59.565 22.2382 59.5576C21.2245 59.5635 20.287 58.7608 20.1288 57.7617C20.0453 57.0161 20.1127 56.2632 20.0922 55.5161C20.1186 54.7823 19.9736 53.9942 20.3354 53.3174C20.7118 52.5645 21.5468 52.0928 22.3847 52.128C26.3075 52.1294 30.2304 52.1294 34.1547 52.128C34.1576 51.646 34.1576 51.1641 34.1533 50.6836C33.3359 50.2574 32.6943 49.5806 31.975 49.0181C31.4858 48.6475 31.1254 48.0835 31.1196 47.4566C31.0947 46.2847 31.1225 45.1128 31.1078 43.9424C31.1093 43.4107 31.0815 42.8394 31.3613 42.3648ZM33.311 43.5249C33.3095 44.7759 33.3007 46.0283 33.3154 47.2808C33.8251 47.6807 34.3041 48.1187 34.8139 48.5186C35.0439 48.7237 35.4072 48.7486 35.6503 48.5523C36.1821 48.1465 36.6786 47.6939 37.1972 47.2735C37.206 46.024 37.2016 44.7744 37.2001 43.5264C35.9037 43.5235 34.6074 43.5264 33.311 43.5249ZM22.2851 54.3413C22.2953 55.3477 22.2851 56.3555 22.2895 57.3633C26.2475 57.356 30.204 57.3794 34.162 57.3516C34.1489 56.3438 34.1606 55.336 34.1547 54.3282C30.1982 54.334 26.2402 54.3076 22.2851 54.3413ZM36.352 54.334C36.3549 55.3433 36.3505 56.3526 36.3549 57.3633C41.5976 57.3633 46.8388 57.3633 52.0815 57.3633C52.0844 56.3511 52.0829 55.3389 52.0829 54.3282C46.8388 54.3282 41.5961 54.3179 36.352 54.334ZM54.2817 54.3282C54.2773 55.3374 54.2831 56.3467 54.2787 57.3574C56.895 57.3677 59.5126 57.3648 62.1288 57.3589C62.1259 56.3482 62.1303 55.3374 62.1259 54.3282C59.5112 54.3252 56.8964 54.3252 54.2817 54.3282ZM22.288 64.7578C22.2895 65.7715 22.2895 66.7866 22.2895 67.8018C26.2446 67.8047 30.1996 67.8018 34.1547 67.8032C34.1576 66.7866 34.1562 65.7715 34.1547 64.7564C30.1996 64.7564 26.2446 64.7534 22.288 64.7578ZM36.352 64.7578C36.3534 65.7715 36.3534 66.7866 36.3534 67.8018C39.3871 67.8047 42.4223 67.8018 45.4575 67.8032C45.4604 66.7866 45.4589 65.7715 45.4575 64.7564C42.4223 64.7564 39.3871 64.7534 36.352 64.7578ZM47.6576 64.7564C47.6562 65.7715 47.6547 66.7866 47.6576 67.8032C52.4814 67.8018 57.3036 67.8032 62.1259 67.8018C62.1288 66.7866 62.1288 65.7715 62.1259 64.7564C57.3036 64.7549 52.4799 64.7564 47.6576 64.7564Z" fill="#111321"></path><path d="M2.35607 52.1821C2.68419 52.1206 3.01964 52.1279 3.35216 52.1265C6.81652 52.1367 10.2809 52.1177 13.7452 52.1367C14.8468 52.1279 15.818 53.1064 15.8224 54.2021C15.8341 55.27 15.8268 56.3394 15.8268 57.4072C15.84 58.2788 15.2731 59.1313 14.4469 59.4229C14.0397 59.5928 13.5914 59.5605 13.1608 59.562C9.69201 59.5562 6.22179 59.5649 2.75304 59.5591C1.68663 59.5605 0.722766 58.6362 0.68761 57.5698C0.661242 56.4492 0.671496 55.3271 0.68175 54.2065C0.683215 53.2485 1.4215 52.3696 2.35607 52.1821ZM2.87316 54.3281C2.86876 55.3374 2.87462 56.3467 2.86876 57.356C6.45909 57.3589 10.0524 57.3882 13.6412 57.3413C13.6178 56.3364 13.6383 55.3315 13.6295 54.3281C10.0436 54.3252 6.45763 54.3252 2.87316 54.3281Z" fill="#111321"></path><path d="M2.63461 62.5751C6.29525 62.5384 9.95736 62.5648 13.618 62.5619C14.7503 62.5033 15.805 63.4642 15.8226 64.6024C15.8329 65.7245 15.8343 66.848 15.8211 67.9716C15.7933 69.0482 14.8353 69.9842 13.7586 69.993C10.243 70.0106 6.72885 69.993 3.21322 70.0018C2.4017 70.0736 1.52865 69.7821 1.06137 69.0834C0.513515 68.3334 0.709804 67.3622 0.674648 66.4965C0.69955 65.7259 0.611659 64.9481 0.739101 64.1849C0.939784 63.3148 1.74105 62.6278 2.63461 62.5751ZM2.87191 64.7562C2.87045 65.7714 2.87045 66.7865 2.87338 67.8016C6.45785 67.8031 10.0438 67.8031 13.6297 67.8016C13.6327 66.7865 13.6312 65.7714 13.6297 64.7562C10.0438 64.7548 6.45785 64.7548 2.87191 64.7562Z" fill="#111321"></path></svg>