<svg xmlns="http://www.w3.org/2000/svg" width="80" height="80" viewBox="0 0 80 80" fill="none"><path d="M38.75 1.25C39.5828 1.25 40.4172 1.25 41.25 1.25C41.25 2.5 41.25 3.75 41.25 5C40.4172 5 39.5828 5 38.75 5C38.75 3.75 38.75 2.5 38.75 1.25Z" fill="#111321"></path><path d="M27.6279 6.89209C28.2154 6.30303 28.8045 5.71553 29.392 5.12646C30.2795 6.00771 31.1623 6.89209 32.0436 7.77803C31.4561 8.36553 30.8686 8.95459 30.2779 9.54209C29.3951 8.65928 28.5107 7.77646 27.6279 6.89209Z" fill="#111321"></path><path d="M47.957 7.77646C48.843 6.89365 49.7242 6.00771 50.6102 5.12646C51.1992 5.71396 51.7867 6.30146 52.3742 6.89053C51.493 7.77646 50.6086 8.65928 49.7242 9.54209C49.1352 8.95303 48.5461 8.36397 47.957 7.77646Z" fill="#111321"></path><path d="M38.3745 6.37654C40.7902 5.99061 43.3261 6.47186 45.4511 7.67654C47.5011 8.84686 49.1574 10.6765 50.1542 12.814C51.1495 14.939 51.4792 17.3687 51.0824 19.6828C50.6527 22.2656 49.3183 24.6844 47.3605 26.4234C46.8402 26.8719 46.4167 27.4609 46.3027 28.1515C46.0964 29.75 46.512 31.4265 45.937 32.975C45.2886 34.7906 43.5074 36.1344 41.5777 36.2328C40.5839 36.2672 39.5886 36.2531 38.5949 36.2422C35.9886 36.225 33.6949 33.8703 33.7527 31.2609C33.7105 30.2219 33.823 29.175 33.6886 28.1422C33.5558 27.2922 32.9324 26.6594 32.3136 26.1187C30.3011 24.2047 29.0324 21.5359 28.7964 18.7687C28.5495 15.9812 29.312 13.0984 30.9964 10.8515C32.7417 8.46873 35.4542 6.82498 38.3745 6.37654ZM33.8667 11.3765C32.4074 12.8312 31.487 14.8047 31.2949 16.8547C30.9995 19.6422 32.0933 22.5297 34.1574 24.425C34.7527 24.9437 35.2652 25.5531 35.6417 26.2484C36.6777 26.2515 37.7136 26.25 38.7495 26.25C38.7495 25.625 38.7495 25 38.7495 24.375C37.5027 23.4359 36.2511 22.5047 35.0042 21.564C34.2652 21.0234 33.7808 20.1484 33.7574 19.2281C33.7386 18.35 33.662 17.4078 34.1027 16.6094C34.6902 15.4625 36.062 14.7969 37.3261 15.0562C38.0933 15.1812 38.7324 15.6672 39.2433 16.2297C39.5027 16.4547 39.7511 16.8515 40.1495 16.7453C40.6042 16.4687 40.9121 16.0187 41.3246 15.689C42.1964 14.9469 43.5089 14.7937 44.5355 15.3015C45.4949 15.7515 46.1746 16.7422 46.2324 17.8031C46.2871 18.8719 46.3433 20.0672 45.623 20.9484C44.9574 21.7297 44.0386 22.2297 43.2511 22.8734C42.7495 22.2094 42.2511 21.5422 41.7496 20.8765C42.3839 20.3484 43.1308 19.9469 43.6933 19.3406C43.7964 18.8875 43.7683 18.414 43.7277 17.9562C43.6964 17.5953 43.2105 17.3937 42.9324 17.6187C42.4667 17.989 42.112 18.4875 41.5949 18.7922C40.6027 19.4062 39.2605 19.3797 38.2964 18.7234C37.798 18.4031 37.4652 17.889 36.9745 17.5609C36.6152 17.4062 36.2089 17.7312 36.2527 18.114C36.2683 18.6344 36.073 19.3422 36.623 19.6562C37.9027 20.614 39.1792 21.5765 40.4636 22.5297C40.8167 22.789 41.1995 23.114 41.2261 23.589C41.287 24.4734 41.2308 25.3625 41.2495 26.25C42.2839 26.2484 43.3167 26.2515 44.3495 26.2484C44.7089 25.5875 45.1839 24.9984 45.7527 24.5078C47.6277 22.8219 48.7386 20.3312 48.7464 17.8125C48.7761 15.2437 47.6636 12.6859 45.7495 10.9703C44.3527 9.69842 42.5261 8.91092 40.6417 8.77811C38.1433 8.56873 35.6214 9.61248 33.8667 11.3765ZM36.2495 28.75C36.2495 29.1672 36.2495 29.5828 36.2495 30C38.7495 30 41.2495 30 43.7495 30C43.7495 29.5828 43.7495 29.1672 43.7495 28.75C41.2495 28.75 38.7495 28.75 36.2495 28.75ZM36.5745 32.5125C37.012 33.1297 37.6527 33.6484 38.4308 33.7203C39.3714 33.7828 40.3167 33.7453 41.2589 33.7453C42.1464 33.7594 42.9386 33.2281 43.423 32.5109C41.1402 32.4922 38.8574 32.4922 36.5745 32.5125Z" fill="#111321"></path><path d="M23.75 16.25C25 16.25 26.25 16.25 27.5 16.25C27.5 17.0828 27.5 17.9172 27.5 18.75C26.25 18.75 25 18.75 23.75 18.75C23.75 17.9172 23.75 17.0828 23.75 16.25Z" fill="#111321"></path><path d="M52.5 16.25C53.75 16.25 55 16.25 56.25 16.25C56.25 17.0828 56.25 17.9172 56.25 18.75C55 18.75 53.75 18.75 52.5 18.75C52.5 17.9172 52.5 17.0828 52.5 16.25Z" fill="#111321"></path><path d="M48.9793 30.0218C55.5121 31.2312 62.0387 32.475 68.5715 33.6875C68.9824 33.7593 69.4105 33.8703 69.7058 34.1875C72.1574 36.6375 74.6105 39.0874 77.0574 41.5421C77.5183 41.9546 77.6449 42.6968 77.2715 43.2078C77.0137 43.6203 76.509 43.7265 76.0699 43.8281C74.4605 44.1656 72.8574 44.5265 71.2496 44.8671C71.2496 46.9953 71.2496 49.1218 71.2496 51.25C70.4152 51.25 69.5824 51.25 68.7496 51.25C68.748 49.3031 68.7512 47.3562 68.7496 45.4109C61.8277 46.9234 54.9043 48.425 47.9793 49.9265C47.4715 50.075 46.884 49.9749 46.5433 49.5437C44.7699 47.4984 43.0183 45.4312 41.2496 43.3796C41.2496 53.3859 41.2496 63.3921 41.2496 73.3984C44.0699 72.7078 46.8824 71.989 49.6996 71.2921C49.8965 72.0999 50.1043 72.9062 50.3027 73.714C47.0543 74.5328 43.8027 75.3421 40.5527 76.1531C39.8465 76.3687 39.1512 76.0562 38.4715 75.9015C28.9293 73.5187 19.3887 71.1281 9.84491 68.7468C9.35897 68.6578 8.89803 68.314 8.79491 67.8125C8.70584 67.2437 8.75897 66.6671 8.74959 66.0953C8.74803 59.0171 8.75272 51.9375 8.74647 44.8593C7.07772 44.5 5.41053 44.1312 3.74178 43.7765C3.32303 43.6953 2.87928 43.5171 2.67147 43.1203C2.35897 42.6109 2.51053 41.9328 2.94334 41.5421C5.39022 39.0937 7.84022 36.6453 10.2887 34.1953C10.7355 33.7062 11.4418 33.7187 12.0418 33.5828C18.3668 32.3953 24.6949 31.2203 31.0183 30.0203C31.173 30.8406 31.3293 31.6609 31.4777 32.4828C27.0808 33.3031 22.6871 34.1406 18.2871 34.9468C25.4152 36.1984 32.5496 37.4218 39.6793 38.675C39.998 38.7312 40.3215 38.6796 40.6387 38.6281C47.659 37.3968 54.684 36.1906 61.7043 34.9546C57.3121 34.1187 52.9152 33.2968 48.5199 32.4765C48.6715 31.6578 48.8262 30.8406 48.9793 30.0218ZM6.25428 41.7656C14.8496 43.6281 23.4433 45.4968 32.0371 47.3671C33.9027 45.2015 35.7558 43.0249 37.6215 40.8578C28.9762 39.3406 20.3262 37.8421 11.6777 36.3421C9.86834 38.1484 8.06053 39.9562 6.25428 41.7656ZM42.3793 40.8546C44.2418 43.0265 46.1027 45.2 47.9668 47.3703C56.5605 45.5078 65.1527 43.6374 73.7449 41.7656C71.9418 39.9531 70.134 38.1453 68.3215 36.3421C59.6762 37.8578 51.0277 39.3578 42.3793 40.8546ZM33.534 49.464C33.2137 49.8765 32.6746 50.0968 32.159 49.9515C25.1902 48.4406 18.2215 46.914 11.2496 45.4093C11.2496 52.4468 11.2496 59.4843 11.2496 66.5218C20.4168 68.8156 29.5855 71.0968 38.7496 73.3984C38.748 63.3937 38.7512 53.3874 38.748 43.3828C37.009 45.4078 35.2746 47.439 33.534 49.464Z" fill="#111321"></path><path d="M60.2574 52.2626C60.3465 51.6532 60.9512 51.2126 61.5559 51.2532C63.0215 51.2454 64.4871 51.2454 65.9527 51.2548C66.5512 51.2189 67.1434 51.6532 67.2387 52.2532C67.3106 52.8579 67.2621 53.4704 67.2715 54.0782C67.8528 54.2845 68.4215 54.5204 68.9762 54.7892C69.4059 54.3829 69.7902 53.9267 70.2512 53.5532C70.7356 53.1595 71.4887 53.2579 71.9012 53.711C72.9481 54.7485 73.9918 55.7907 75.0293 56.8376C75.484 57.247 75.5934 58.0001 75.2027 58.4876C74.8324 58.9548 74.3731 59.3423 73.9621 59.772C74.2277 60.3298 74.4637 60.8985 74.6715 61.4798C75.2777 61.4876 75.8871 61.4407 76.4918 61.5095C77.0965 61.6017 77.534 62.2001 77.4949 62.8017C77.5043 64.2657 77.5043 65.7314 77.4949 67.1954C77.5324 67.7954 77.0965 68.3954 76.4934 68.4892C75.8887 68.5579 75.2777 68.511 74.6715 68.5204C74.4621 69.1001 74.2262 69.6704 73.9621 70.2282C74.3731 70.6579 74.8309 71.0454 75.2027 71.5111C75.5887 71.9939 75.4871 72.7376 75.0434 73.1485C74.0027 74.1985 72.9559 75.2439 71.9074 76.2845C71.4949 76.7345 70.7465 76.8423 70.259 76.4532C69.7949 76.0782 69.4074 75.6204 68.9762 75.2111C68.4215 75.4782 67.8528 75.7157 67.2715 75.9204C67.2621 76.5267 67.3106 77.136 67.2387 77.7392C67.1465 78.3439 66.5496 78.7814 65.9496 78.7454C64.4824 78.7532 63.0137 78.7548 61.5481 78.7454C60.9481 78.7814 60.3528 78.347 60.2606 77.7439C60.1871 77.1392 60.2356 76.5282 60.2277 75.9204C59.6496 75.7079 59.0777 75.4751 58.5199 75.2126C58.059 75.6454 57.659 76.1517 57.1403 76.5204C56.6528 76.8314 55.9793 76.7032 55.5949 76.2861C54.5465 75.2454 53.5012 74.2017 52.4621 73.1532C52.0121 72.7423 51.909 71.9954 52.2949 71.5111C52.6699 71.047 53.1277 70.6595 53.5387 70.2282C53.2715 69.6704 53.0356 69.1001 52.8277 68.5204C52.2184 68.511 51.6059 68.5595 50.9996 68.4876C50.3965 68.3907 49.9637 67.7923 50.0027 67.1923C49.9949 65.7298 49.9949 64.2657 50.0043 62.8032C49.9652 62.2032 50.3996 61.6032 51.0012 61.5111C51.6074 61.4407 52.2184 61.4876 52.8277 61.4798C53.0356 60.8985 53.2715 60.3282 53.5371 59.772C53.1293 59.3407 52.6715 58.9564 52.2996 58.4923C51.9059 58.0064 52.0121 57.2517 52.4668 56.8423C53.5059 55.7954 54.5481 54.7517 55.5949 53.7142C56.0059 53.2595 56.7606 53.1579 57.2465 53.5517C57.709 53.922 58.0918 54.3782 58.5199 54.7876C59.0777 54.5236 59.6481 54.2907 60.2277 54.0798C60.2356 53.4735 60.1887 52.8657 60.2574 52.2626ZM62.7449 53.7501C62.7231 54.3407 62.6871 54.9689 62.334 55.4704C61.9918 56.0345 61.384 56.3439 60.7793 56.5454C59.9481 56.8111 59.1856 57.4157 58.2699 57.3001C57.5637 57.2626 56.9887 56.8064 56.5059 56.3345C56.0324 56.8079 55.559 57.2814 55.0856 57.7532C55.5168 58.2079 55.9496 58.722 56.0309 59.3689C56.1637 60.0267 55.9012 60.6642 55.6152 61.2423C55.2465 62.0001 55.1121 62.9345 54.3887 63.4626C53.8652 63.9064 53.1606 63.9829 52.5012 63.9954C52.4981 64.6642 52.4996 65.3329 52.4996 66.0032C53.0871 66.0267 53.7121 66.0579 54.2106 66.4095C54.7762 66.7485 55.0918 67.3548 55.2918 67.9611C55.5559 68.7986 56.1715 69.5657 56.0481 70.4907C56.0043 71.1907 55.5543 71.7626 55.0856 72.247C55.559 72.7189 56.0324 73.1923 56.5059 73.6657C56.9559 73.2314 57.4668 72.7985 58.1121 72.7189C58.7746 72.5829 59.4137 72.847 59.9949 73.1329C60.7512 73.5032 61.6856 73.636 62.2137 74.3595C62.659 74.8829 62.7309 75.5892 62.7449 76.2501C63.4152 76.2501 64.0856 76.2501 64.7574 76.247C64.7699 75.6204 64.8215 74.9517 65.2262 74.4392C65.8512 73.5361 67.0324 73.4454 67.9309 72.9423C68.9762 72.3767 70.2559 72.8032 70.9934 73.6657C71.4684 73.1923 71.9434 72.7189 72.4168 72.2423C71.9418 71.7642 71.4934 71.1923 71.4496 70.4923C71.3512 69.8329 71.6637 69.2282 71.9293 68.6517C72.2652 67.9235 72.4152 67.0423 73.1059 66.5407C73.6277 66.0876 74.3371 66.0173 74.9996 66.0032C74.9996 65.3345 74.9996 64.6657 74.9996 63.997C74.3387 63.9829 73.6324 63.9095 73.109 63.461C72.5965 63.0876 72.359 62.4814 72.1574 61.9032C71.8902 61.1189 71.3293 60.3876 71.4481 59.5157C71.4902 58.8126 71.9402 58.2361 72.4168 57.7564C71.9434 57.2814 71.4684 56.8079 70.9934 56.3345C70.5434 56.7673 70.0309 57.197 69.3871 57.2798C68.7731 57.4017 68.1653 57.1939 67.6231 56.9189C66.8387 56.5157 65.8543 56.3985 65.2949 55.6485C64.8403 55.1251 64.7652 54.4142 64.7543 53.7501C64.084 53.7501 63.4137 53.7501 62.7449 53.7501Z" fill="#111321"></path><path d="M63.1495 58.1531C64.9261 57.9969 66.7573 58.5578 68.1245 59.7078C69.6417 60.95 70.5792 62.8688 70.6167 64.8313C70.6777 66.7266 69.8933 68.6235 68.5292 69.9391C67.1152 71.3203 65.0839 72.0344 63.1183 71.8422C60.9355 71.6578 58.8902 70.3469 57.8042 68.4469C56.7402 66.6375 56.5808 64.3328 57.3886 62.3953C58.3183 60.0516 60.6355 58.3485 63.1495 58.1531ZM62.8745 60.7188C60.9964 61.0641 59.5042 62.7703 59.3917 64.6735C59.1792 66.7875 60.7511 68.8672 62.8292 69.275C64.362 69.6188 66.0511 69.0469 67.0636 67.8453C68.0995 66.6625 68.4152 64.8969 67.8277 63.4344C67.1308 61.4813 64.8995 60.2516 62.8745 60.7188Z" fill="#111321"></path></svg>